# xmcd CD database file
#
# Track frame offsets:
#	150
#	19926
#	36987
#	55328
#	72240
#	87090
#	103541
#	117400
#	139973
#	155284
#	167438
#	183472
#
# Disc length: 2699 seconds
#
# Revision: 0
# Processed by: cddbd v1.4PL0 Copyright (c) Steve Scherf et al.
# Submitted via: CDex 1.50
#
DISCID=9f0a890c
DTITLE=Debbie Davies - I Got That Feeling
DYEAR=1996
DGENRE=Blues
TTITLE0=Howlin' At The Moon
TTITLE1=Tired Angels
TTITLE2=I Got That Feeling
TTITLE3=Watch Your Step
TTITLE4=Let The Heartaches Begin
TTITLE5=Lucky In Love
TTITLE6=Bad For Me
TTITLE7=Where Do You Keep The Love In This Town
TTITLE8=Rockin' You Baby
TTITLE9=Homework
TTITLE10=Talk to Me
TTITLE11=I Could Get Used To This
EXTD=YEAR: 1996
EXTT0=
EXTT1=
EXTT2=
EXTT3=
EXTT4=
EXTT5=
EXTT6=
EXTT7=
EXTT8=
EXTT9=
EXTT10=
EXTT11=
PLAYORDER=
